<mxfile host="app.diagrams.net" modified="2023-04-06T21:39:31.243Z" agent="Mozilla/5.0 (Windows NT 10.0; Win64; x64) AppleWebKit/537.36 (KHTML, like Gecko) Chrome/110.0.0.0 Safari/537.36" etag="wM2KAu_yKxXFvvEqFinS" version="21.1.4" type="device">
  <diagram name="Page-1" id="LlOxnNU3ukzGgtLs8JUk">
    <mxGraphModel dx="799" dy="1886" grid="1" gridSize="5" guides="1" tooltips="1" connect="1" arrows="1" fold="1" page="1" pageScale="1" pageWidth="850" pageHeight="1100" math="0" shadow="0">
      <root>
        <mxCell id="0" />
        <mxCell id="1" parent="0" />
        <mxCell id="U1IpXBAiC91T13UOEffE-250" value="&lt;b&gt;&lt;font style=&quot;font-size: 14px;&quot;&gt;Commencement&lt;/font&gt;&lt;/b&gt;" style="whiteSpace=wrap;html=1;labelBackgroundColor=none;movable=1;resizable=1;rotatable=1;deletable=1;editable=1;locked=0;connectable=1;container=0;" vertex="1" parent="1">
          <mxGeometry x="690" y="150" width="140" height="20" as="geometry" />
        </mxCell>
        <mxCell id="U1IpXBAiC91T13UOEffE-759" value="" style="rounded=0;whiteSpace=wrap;html=1;movable=1;resizable=1;rotatable=1;deletable=1;editable=1;locked=0;connectable=1;container=0;" vertex="1" parent="1">
          <mxGeometry x="690" y="170" width="140" height="30" as="geometry" />
        </mxCell>
        <mxCell id="U1IpXBAiC91T13UOEffE-522" value="" style="rounded=0;whiteSpace=wrap;html=1;labelBackgroundColor=none;fillColor=#000000;movable=1;resizable=1;rotatable=1;deletable=1;editable=1;locked=0;connectable=1;container=0;" vertex="1" parent="1">
          <mxGeometry y="750" width="140" height="5" as="geometry" />
        </mxCell>
        <mxCell id="U1IpXBAiC91T13UOEffE-263" value="" style="rounded=0;whiteSpace=wrap;html=1;labelBackgroundColor=none;movable=1;resizable=1;rotatable=1;deletable=1;editable=1;locked=0;connectable=1;container=0;" vertex="1" parent="1">
          <mxGeometry y="150" width="140" height="150" as="geometry" />
        </mxCell>
        <mxCell id="U1IpXBAiC91T13UOEffE-264" value="&lt;b style=&quot;border-color: var(--border-color);&quot;&gt;&lt;font style=&quot;font-size: 14px;&quot;&gt;Distant Roost (alt)&lt;/font&gt;&lt;/b&gt;" style="whiteSpace=wrap;html=1;labelBackgroundColor=none;movable=1;resizable=1;rotatable=1;deletable=1;editable=1;locked=0;connectable=1;container=0;" vertex="1" parent="1">
          <mxGeometry y="150" width="140" height="20" as="geometry" />
        </mxCell>
        <mxCell id="U1IpXBAiC91T13UOEffE-266" value="Chests:" style="text;html=1;strokeColor=none;fillColor=none;align=right;verticalAlign=middle;whiteSpace=wrap;rounded=0;labelBackgroundColor=none;movable=1;resizable=1;rotatable=1;deletable=1;editable=1;locked=0;connectable=1;container=0;" vertex="1" parent="1">
          <mxGeometry y="175" width="105" height="20" as="geometry" />
        </mxCell>
        <mxCell id="U1IpXBAiC91T13UOEffE-267" value="Newt Altars:" style="text;html=1;strokeColor=none;fillColor=none;align=right;verticalAlign=middle;whiteSpace=wrap;rounded=0;labelBackgroundColor=none;movable=1;resizable=1;rotatable=1;deletable=1;editable=1;locked=0;connectable=1;container=0;" vertex="1" parent="1">
          <mxGeometry y="225" width="105" height="20" as="geometry" />
        </mxCell>
        <mxCell id="U1IpXBAiC91T13UOEffE-268" value="Radio Scanner:" style="text;html=1;strokeColor=none;fillColor=none;align=right;verticalAlign=middle;whiteSpace=wrap;rounded=0;labelBackgroundColor=none;movable=1;resizable=1;rotatable=1;deletable=1;editable=1;locked=0;connectable=1;container=0;" vertex="1" parent="1">
          <mxGeometry y="250" width="105" height="20" as="geometry" />
        </mxCell>
        <mxCell id="U1IpXBAiC91T13UOEffE-269" value="Shrines:" style="text;html=1;strokeColor=none;fillColor=none;align=right;verticalAlign=middle;whiteSpace=wrap;rounded=0;labelBackgroundColor=none;movable=1;resizable=1;rotatable=1;deletable=1;editable=1;locked=0;connectable=1;container=0;" vertex="1" parent="1">
          <mxGeometry y="200" width="105" height="20" as="geometry" />
        </mxCell>
        <mxCell id="U1IpXBAiC91T13UOEffE-270" value="Scavenger:" style="text;html=1;strokeColor=none;fillColor=none;align=right;verticalAlign=middle;whiteSpace=wrap;rounded=0;labelBackgroundColor=none;movable=1;resizable=1;rotatable=1;deletable=1;editable=1;locked=0;connectable=1;container=0;" vertex="1" parent="1">
          <mxGeometry y="275" width="105" height="20" as="geometry" />
        </mxCell>
        <mxCell id="U1IpXBAiC91T13UOEffE-314" value="" style="rounded=0;whiteSpace=wrap;html=1;labelBackgroundColor=none;movable=1;resizable=1;rotatable=1;deletable=1;editable=1;locked=0;connectable=1;container=0;" vertex="1" parent="1">
          <mxGeometry y="300" width="140" height="150" as="geometry" />
        </mxCell>
        <mxCell id="U1IpXBAiC91T13UOEffE-315" value="&lt;p style=&quot;line-height: 120%;&quot;&gt;&lt;b style=&quot;border-color: var(--border-color);&quot;&gt;&lt;font style=&quot;font-size: 14px;&quot;&gt;Titanic Plains&lt;/font&gt;&lt;/b&gt;&lt;/p&gt;" style="whiteSpace=wrap;html=1;labelBackgroundColor=none;movable=1;resizable=1;rotatable=1;deletable=1;editable=1;locked=0;connectable=1;container=0;" vertex="1" parent="1">
          <mxGeometry y="300" width="140" height="20" as="geometry" />
        </mxCell>
        <mxCell id="U1IpXBAiC91T13UOEffE-317" value="Chests:" style="text;html=1;strokeColor=none;fillColor=none;align=right;verticalAlign=middle;whiteSpace=wrap;rounded=0;labelBackgroundColor=none;movable=1;resizable=1;rotatable=1;deletable=1;editable=1;locked=0;connectable=1;container=0;" vertex="1" parent="1">
          <mxGeometry y="325" width="105" height="20" as="geometry" />
        </mxCell>
        <mxCell id="U1IpXBAiC91T13UOEffE-318" value="Newt Altars:" style="text;html=1;strokeColor=none;fillColor=none;align=right;verticalAlign=middle;whiteSpace=wrap;rounded=0;labelBackgroundColor=none;movable=1;resizable=1;rotatable=1;deletable=1;editable=1;locked=0;connectable=1;container=0;" vertex="1" parent="1">
          <mxGeometry y="375" width="105" height="20" as="geometry" />
        </mxCell>
        <mxCell id="U1IpXBAiC91T13UOEffE-319" value="Radio Scanner:" style="text;html=1;strokeColor=none;fillColor=none;align=right;verticalAlign=middle;whiteSpace=wrap;rounded=0;labelBackgroundColor=none;movable=1;resizable=1;rotatable=1;deletable=1;editable=1;locked=0;connectable=1;container=0;" vertex="1" parent="1">
          <mxGeometry y="400" width="105" height="20" as="geometry" />
        </mxCell>
        <mxCell id="U1IpXBAiC91T13UOEffE-320" value="Shrines:" style="text;html=1;strokeColor=none;fillColor=none;align=right;verticalAlign=middle;whiteSpace=wrap;rounded=0;labelBackgroundColor=none;movable=1;resizable=1;rotatable=1;deletable=1;editable=1;locked=0;connectable=1;container=0;" vertex="1" parent="1">
          <mxGeometry y="350" width="105" height="20" as="geometry" />
        </mxCell>
        <mxCell id="U1IpXBAiC91T13UOEffE-321" value="Scavenger:" style="text;html=1;strokeColor=none;fillColor=none;align=right;verticalAlign=middle;whiteSpace=wrap;rounded=0;labelBackgroundColor=none;movable=1;resizable=1;rotatable=1;deletable=1;editable=1;locked=0;connectable=1;container=0;" vertex="1" parent="1">
          <mxGeometry y="425" width="105" height="20" as="geometry" />
        </mxCell>
        <mxCell id="U1IpXBAiC91T13UOEffE-487" value="" style="rounded=0;whiteSpace=wrap;html=1;labelBackgroundColor=none;movable=1;resizable=1;rotatable=1;deletable=1;editable=1;locked=0;connectable=1;container=0;" vertex="1" parent="1">
          <mxGeometry y="450" width="140" height="150" as="geometry" />
        </mxCell>
        <mxCell id="U1IpXBAiC91T13UOEffE-488" value="&lt;p style=&quot;line-height: 120%;&quot;&gt;&lt;b style=&quot;border-color: var(--border-color);&quot;&gt;&lt;font style=&quot;border-color: var(--border-color); font-size: 14px;&quot;&gt;Titanic Plains (alt)&lt;/font&gt;&lt;/b&gt;&lt;br&gt;&lt;/p&gt;" style="whiteSpace=wrap;html=1;labelBackgroundColor=none;movable=1;resizable=1;rotatable=1;deletable=1;editable=1;locked=0;connectable=1;container=0;" vertex="1" parent="1">
          <mxGeometry y="450" width="140" height="20" as="geometry" />
        </mxCell>
        <mxCell id="U1IpXBAiC91T13UOEffE-490" value="Chests:" style="text;html=1;strokeColor=none;fillColor=none;align=right;verticalAlign=middle;whiteSpace=wrap;rounded=0;labelBackgroundColor=none;movable=1;resizable=1;rotatable=1;deletable=1;editable=1;locked=0;connectable=1;container=0;" vertex="1" parent="1">
          <mxGeometry y="475" width="105" height="20" as="geometry" />
        </mxCell>
        <mxCell id="U1IpXBAiC91T13UOEffE-491" value="Newt Altars:" style="text;html=1;strokeColor=none;fillColor=none;align=right;verticalAlign=middle;whiteSpace=wrap;rounded=0;labelBackgroundColor=none;movable=1;resizable=1;rotatable=1;deletable=1;editable=1;locked=0;connectable=1;container=0;" vertex="1" parent="1">
          <mxGeometry y="525" width="105" height="20" as="geometry" />
        </mxCell>
        <mxCell id="U1IpXBAiC91T13UOEffE-492" value="Radio Scanner:" style="text;html=1;strokeColor=none;fillColor=none;align=right;verticalAlign=middle;whiteSpace=wrap;rounded=0;labelBackgroundColor=none;movable=1;resizable=1;rotatable=1;deletable=1;editable=1;locked=0;connectable=1;container=0;" vertex="1" parent="1">
          <mxGeometry y="550" width="105" height="20" as="geometry" />
        </mxCell>
        <mxCell id="U1IpXBAiC91T13UOEffE-493" value="Shrines:" style="text;html=1;strokeColor=none;fillColor=none;align=right;verticalAlign=middle;whiteSpace=wrap;rounded=0;labelBackgroundColor=none;movable=1;resizable=1;rotatable=1;deletable=1;editable=1;locked=0;connectable=1;container=0;" vertex="1" parent="1">
          <mxGeometry y="500" width="105" height="20" as="geometry" />
        </mxCell>
        <mxCell id="U1IpXBAiC91T13UOEffE-494" value="Scavenger:" style="text;html=1;strokeColor=none;fillColor=none;align=right;verticalAlign=middle;whiteSpace=wrap;rounded=0;labelBackgroundColor=none;movable=1;resizable=1;rotatable=1;deletable=1;editable=1;locked=0;connectable=1;container=0;" vertex="1" parent="1">
          <mxGeometry y="575" width="105" height="20" as="geometry" />
        </mxCell>
        <mxCell id="U1IpXBAiC91T13UOEffE-499" value="" style="rounded=0;whiteSpace=wrap;html=1;labelBackgroundColor=none;movable=1;resizable=1;rotatable=1;deletable=1;editable=1;locked=0;connectable=1;container=0;" vertex="1" parent="1">
          <mxGeometry y="605" width="140" height="145" as="geometry" />
        </mxCell>
        <mxCell id="U1IpXBAiC91T13UOEffE-500" value="&lt;p style=&quot;line-height: 120%;&quot;&gt;&lt;b style=&quot;border-color: var(--border-color);&quot;&gt;&lt;font style=&quot;font-size: 14px;&quot;&gt;Siphoned Forest&lt;/font&gt;&lt;/b&gt;&lt;/p&gt;" style="whiteSpace=wrap;html=1;labelBackgroundColor=none;movable=1;resizable=1;rotatable=1;deletable=1;editable=1;locked=0;connectable=1;container=0;" vertex="1" parent="1">
          <mxGeometry y="600" width="140" height="20" as="geometry" />
        </mxCell>
        <mxCell id="U1IpXBAiC91T13UOEffE-502" value="Chests:" style="text;html=1;strokeColor=none;fillColor=none;align=right;verticalAlign=middle;whiteSpace=wrap;rounded=0;labelBackgroundColor=none;movable=1;resizable=1;rotatable=1;deletable=1;editable=1;locked=0;connectable=1;container=0;" vertex="1" parent="1">
          <mxGeometry y="625" width="105" height="20" as="geometry" />
        </mxCell>
        <mxCell id="U1IpXBAiC91T13UOEffE-503" value="Newt Altars:" style="text;html=1;strokeColor=none;fillColor=none;align=right;verticalAlign=middle;whiteSpace=wrap;rounded=0;labelBackgroundColor=none;movable=1;resizable=1;rotatable=1;deletable=1;editable=1;locked=0;connectable=1;container=0;" vertex="1" parent="1">
          <mxGeometry y="675" width="105" height="20" as="geometry" />
        </mxCell>
        <mxCell id="U1IpXBAiC91T13UOEffE-504" value="Radio Scanner:" style="text;html=1;strokeColor=none;fillColor=none;align=right;verticalAlign=middle;whiteSpace=wrap;rounded=0;labelBackgroundColor=none;movable=1;resizable=1;rotatable=1;deletable=1;editable=1;locked=0;connectable=1;container=0;" vertex="1" parent="1">
          <mxGeometry y="700" width="105" height="20" as="geometry" />
        </mxCell>
        <mxCell id="U1IpXBAiC91T13UOEffE-505" value="Shrines:" style="text;html=1;strokeColor=none;fillColor=none;align=right;verticalAlign=middle;whiteSpace=wrap;rounded=0;labelBackgroundColor=none;movable=1;resizable=1;rotatable=1;deletable=1;editable=1;locked=0;connectable=1;container=0;" vertex="1" parent="1">
          <mxGeometry y="650" width="105" height="20" as="geometry" />
        </mxCell>
        <mxCell id="U1IpXBAiC91T13UOEffE-506" value="Scavenger:" style="text;html=1;strokeColor=none;fillColor=none;align=right;verticalAlign=middle;whiteSpace=wrap;rounded=0;labelBackgroundColor=none;movable=1;resizable=1;rotatable=1;deletable=1;editable=1;locked=0;connectable=1;container=0;" vertex="1" parent="1">
          <mxGeometry y="725" width="105" height="20" as="geometry" />
        </mxCell>
        <mxCell id="U1IpXBAiC91T13UOEffE-616" value="" style="rounded=0;whiteSpace=wrap;html=1;labelBackgroundColor=none;movable=1;resizable=1;rotatable=1;deletable=1;editable=1;locked=0;connectable=1;container=0;" vertex="1" parent="1">
          <mxGeometry x="350" width="140" height="150" as="geometry" />
        </mxCell>
        <mxCell id="U1IpXBAiC91T13UOEffE-617" value="&lt;p style=&quot;line-height: 120%;&quot;&gt;&lt;b style=&quot;border-color: var(--border-color);&quot;&gt;&lt;font style=&quot;font-size: 14px;&quot;&gt;Rallypoint Delta&lt;/font&gt;&lt;/b&gt;&lt;/p&gt;" style="whiteSpace=wrap;html=1;labelBackgroundColor=none;movable=1;resizable=1;rotatable=1;deletable=1;editable=1;locked=0;connectable=1;container=0;" vertex="1" parent="1">
          <mxGeometry x="350" width="140" height="20" as="geometry" />
        </mxCell>
        <mxCell id="U1IpXBAiC91T13UOEffE-619" value="Chests:" style="text;html=1;strokeColor=none;fillColor=none;align=right;verticalAlign=middle;whiteSpace=wrap;rounded=0;labelBackgroundColor=none;movable=1;resizable=1;rotatable=1;deletable=1;editable=1;locked=0;connectable=1;container=0;" vertex="1" parent="1">
          <mxGeometry x="350" y="25" width="105" height="20" as="geometry" />
        </mxCell>
        <mxCell id="U1IpXBAiC91T13UOEffE-620" value="Newt Altars:" style="text;html=1;strokeColor=none;fillColor=none;align=right;verticalAlign=middle;whiteSpace=wrap;rounded=0;labelBackgroundColor=none;movable=1;resizable=1;rotatable=1;deletable=1;editable=1;locked=0;connectable=1;container=0;" vertex="1" parent="1">
          <mxGeometry x="350" y="75" width="105" height="20" as="geometry" />
        </mxCell>
        <mxCell id="U1IpXBAiC91T13UOEffE-621" value="Radio Scanner:" style="text;html=1;strokeColor=none;fillColor=none;align=right;verticalAlign=middle;whiteSpace=wrap;rounded=0;labelBackgroundColor=none;movable=1;resizable=1;rotatable=1;deletable=1;editable=1;locked=0;connectable=1;container=0;" vertex="1" parent="1">
          <mxGeometry x="350" y="100" width="105" height="20" as="geometry" />
        </mxCell>
        <mxCell id="U1IpXBAiC91T13UOEffE-622" value="Shrines:" style="text;html=1;strokeColor=none;fillColor=none;align=right;verticalAlign=middle;whiteSpace=wrap;rounded=0;labelBackgroundColor=none;movable=1;resizable=1;rotatable=1;deletable=1;editable=1;locked=0;connectable=1;container=0;" vertex="1" parent="1">
          <mxGeometry x="350" y="50" width="105" height="20" as="geometry" />
        </mxCell>
        <mxCell id="U1IpXBAiC91T13UOEffE-623" value="Scavenger:" style="text;html=1;strokeColor=none;fillColor=none;align=right;verticalAlign=middle;whiteSpace=wrap;rounded=0;labelBackgroundColor=none;movable=1;resizable=1;rotatable=1;deletable=1;editable=1;locked=0;connectable=1;container=0;" vertex="1" parent="1">
          <mxGeometry x="350" y="125" width="105" height="20" as="geometry" />
        </mxCell>
        <mxCell id="U1IpXBAiC91T13UOEffE-629" value="" style="rounded=0;whiteSpace=wrap;html=1;labelBackgroundColor=none;movable=1;resizable=1;rotatable=1;deletable=1;editable=1;locked=0;connectable=1;container=0;" vertex="1" parent="1">
          <mxGeometry x="350" y="150" width="140" height="150" as="geometry" />
        </mxCell>
        <mxCell id="U1IpXBAiC91T13UOEffE-630" value="&lt;p style=&quot;line-height: 120%;&quot;&gt;&lt;b style=&quot;border-color: var(--border-color);&quot;&gt;&lt;font style=&quot;font-size: 14px;&quot;&gt;Scorched Acres&lt;/font&gt;&lt;/b&gt;&lt;/p&gt;" style="whiteSpace=wrap;html=1;labelBackgroundColor=none;movable=1;resizable=1;rotatable=1;deletable=1;editable=1;locked=0;connectable=1;container=0;" vertex="1" parent="1">
          <mxGeometry x="350" y="150" width="140" height="20" as="geometry" />
        </mxCell>
        <mxCell id="U1IpXBAiC91T13UOEffE-632" value="Chests:" style="text;html=1;strokeColor=none;fillColor=none;align=right;verticalAlign=middle;whiteSpace=wrap;rounded=0;labelBackgroundColor=none;movable=1;resizable=1;rotatable=1;deletable=1;editable=1;locked=0;connectable=1;container=0;" vertex="1" parent="1">
          <mxGeometry x="350" y="175" width="105" height="20" as="geometry" />
        </mxCell>
        <mxCell id="U1IpXBAiC91T13UOEffE-633" value="Newt Altars:" style="text;html=1;strokeColor=none;fillColor=none;align=right;verticalAlign=middle;whiteSpace=wrap;rounded=0;labelBackgroundColor=none;movable=1;resizable=1;rotatable=1;deletable=1;editable=1;locked=0;connectable=1;container=0;" vertex="1" parent="1">
          <mxGeometry x="350" y="225" width="105" height="20" as="geometry" />
        </mxCell>
        <mxCell id="U1IpXBAiC91T13UOEffE-634" value="Radio Scanner:" style="text;html=1;strokeColor=none;fillColor=none;align=right;verticalAlign=middle;whiteSpace=wrap;rounded=0;labelBackgroundColor=none;movable=1;resizable=1;rotatable=1;deletable=1;editable=1;locked=0;connectable=1;container=0;" vertex="1" parent="1">
          <mxGeometry x="350" y="250" width="105" height="20" as="geometry" />
        </mxCell>
        <mxCell id="U1IpXBAiC91T13UOEffE-635" value="Shrines:" style="text;html=1;strokeColor=none;fillColor=none;align=right;verticalAlign=middle;whiteSpace=wrap;rounded=0;labelBackgroundColor=none;movable=1;resizable=1;rotatable=1;deletable=1;editable=1;locked=0;connectable=1;container=0;" vertex="1" parent="1">
          <mxGeometry x="350" y="200" width="105" height="20" as="geometry" />
        </mxCell>
        <mxCell id="U1IpXBAiC91T13UOEffE-636" value="Scavenger:" style="text;html=1;strokeColor=none;fillColor=none;align=right;verticalAlign=middle;whiteSpace=wrap;rounded=0;labelBackgroundColor=none;movable=1;resizable=1;rotatable=1;deletable=1;editable=1;locked=0;connectable=1;container=0;" vertex="1" parent="1">
          <mxGeometry x="350" y="275" width="105" height="20" as="geometry" />
        </mxCell>
        <mxCell id="U1IpXBAiC91T13UOEffE-642" value="" style="rounded=0;whiteSpace=wrap;html=1;labelBackgroundColor=none;movable=1;resizable=1;rotatable=1;deletable=1;editable=1;locked=0;connectable=1;container=0;" vertex="1" parent="1">
          <mxGeometry x="350" y="300" width="140" height="150" as="geometry" />
        </mxCell>
        <mxCell id="U1IpXBAiC91T13UOEffE-643" value="&lt;p style=&quot;line-height: 120%;&quot;&gt;&lt;b style=&quot;border-color: var(--border-color);&quot;&gt;&lt;font style=&quot;font-size: 14px;&quot;&gt;Sulfur Pools&lt;/font&gt;&lt;/b&gt;&lt;/p&gt;" style="whiteSpace=wrap;html=1;labelBackgroundColor=none;movable=1;resizable=1;rotatable=1;deletable=1;editable=1;locked=0;connectable=1;container=0;" vertex="1" parent="1">
          <mxGeometry x="350" y="300" width="140" height="20" as="geometry" />
        </mxCell>
        <mxCell id="U1IpXBAiC91T13UOEffE-645" value="Chests:" style="text;html=1;strokeColor=none;fillColor=none;align=right;verticalAlign=middle;whiteSpace=wrap;rounded=0;labelBackgroundColor=none;movable=1;resizable=1;rotatable=1;deletable=1;editable=1;locked=0;connectable=1;container=0;" vertex="1" parent="1">
          <mxGeometry x="350" y="325" width="105" height="20" as="geometry" />
        </mxCell>
        <mxCell id="U1IpXBAiC91T13UOEffE-646" value="Newt Altars:" style="text;html=1;strokeColor=none;fillColor=none;align=right;verticalAlign=middle;whiteSpace=wrap;rounded=0;labelBackgroundColor=none;movable=1;resizable=1;rotatable=1;deletable=1;editable=1;locked=0;connectable=1;container=0;" vertex="1" parent="1">
          <mxGeometry x="350" y="375" width="105" height="20" as="geometry" />
        </mxCell>
        <mxCell id="U1IpXBAiC91T13UOEffE-647" value="Radio Scanner:" style="text;html=1;strokeColor=none;fillColor=none;align=right;verticalAlign=middle;whiteSpace=wrap;rounded=0;labelBackgroundColor=none;movable=1;resizable=1;rotatable=1;deletable=1;editable=1;locked=0;connectable=1;container=0;" vertex="1" parent="1">
          <mxGeometry x="350" y="400" width="105" height="20" as="geometry" />
        </mxCell>
        <mxCell id="U1IpXBAiC91T13UOEffE-648" value="Shrines:" style="text;html=1;strokeColor=none;fillColor=none;align=right;verticalAlign=middle;whiteSpace=wrap;rounded=0;labelBackgroundColor=none;movable=1;resizable=1;rotatable=1;deletable=1;editable=1;locked=0;connectable=1;container=0;" vertex="1" parent="1">
          <mxGeometry x="350" y="350" width="105" height="20" as="geometry" />
        </mxCell>
        <mxCell id="U1IpXBAiC91T13UOEffE-649" value="Scavenger:" style="text;html=1;strokeColor=none;fillColor=none;align=right;verticalAlign=middle;whiteSpace=wrap;rounded=0;labelBackgroundColor=none;movable=1;resizable=1;rotatable=1;deletable=1;editable=1;locked=0;connectable=1;container=0;" vertex="1" parent="1">
          <mxGeometry x="350" y="425" width="105" height="20" as="geometry" />
        </mxCell>
        <mxCell id="U1IpXBAiC91T13UOEffE-694" value="" style="rounded=0;whiteSpace=wrap;html=1;labelBackgroundColor=none;movable=1;resizable=1;rotatable=1;deletable=1;editable=1;locked=0;connectable=1;container=0;" vertex="1" parent="1">
          <mxGeometry x="520" width="140" height="150" as="geometry" />
        </mxCell>
        <mxCell id="U1IpXBAiC91T13UOEffE-695" value="&lt;p style=&quot;line-height: 120%;&quot;&gt;&lt;b style=&quot;border-color: var(--border-color);&quot;&gt;&lt;font style=&quot;font-size: 14px;&quot;&gt;Abyssal Depths&lt;/font&gt;&lt;/b&gt;&lt;/p&gt;" style="whiteSpace=wrap;html=1;labelBackgroundColor=none;movable=1;resizable=1;rotatable=1;deletable=1;editable=1;locked=0;connectable=1;container=0;" vertex="1" parent="1">
          <mxGeometry x="520" width="140" height="20" as="geometry" />
        </mxCell>
        <mxCell id="U1IpXBAiC91T13UOEffE-697" value="Chests:" style="text;html=1;strokeColor=none;fillColor=none;align=right;verticalAlign=middle;whiteSpace=wrap;rounded=0;labelBackgroundColor=none;movable=1;resizable=1;rotatable=1;deletable=1;editable=1;locked=0;connectable=1;container=0;" vertex="1" parent="1">
          <mxGeometry x="520" y="25" width="105" height="20" as="geometry" />
        </mxCell>
        <mxCell id="U1IpXBAiC91T13UOEffE-698" value="Newt Altars:" style="text;html=1;strokeColor=none;fillColor=none;align=right;verticalAlign=middle;whiteSpace=wrap;rounded=0;labelBackgroundColor=none;movable=1;resizable=1;rotatable=1;deletable=1;editable=1;locked=0;connectable=1;container=0;" vertex="1" parent="1">
          <mxGeometry x="520" y="75" width="105" height="20" as="geometry" />
        </mxCell>
        <mxCell id="U1IpXBAiC91T13UOEffE-699" value="Radio Scanner:" style="text;html=1;strokeColor=none;fillColor=none;align=right;verticalAlign=middle;whiteSpace=wrap;rounded=0;labelBackgroundColor=none;movable=1;resizable=1;rotatable=1;deletable=1;editable=1;locked=0;connectable=1;container=0;" vertex="1" parent="1">
          <mxGeometry x="520" y="100" width="105" height="20" as="geometry" />
        </mxCell>
        <mxCell id="U1IpXBAiC91T13UOEffE-700" value="Shrines:" style="text;html=1;strokeColor=none;fillColor=none;align=right;verticalAlign=middle;whiteSpace=wrap;rounded=0;labelBackgroundColor=none;movable=1;resizable=1;rotatable=1;deletable=1;editable=1;locked=0;connectable=1;container=0;" vertex="1" parent="1">
          <mxGeometry x="520" y="50" width="105" height="20" as="geometry" />
        </mxCell>
        <mxCell id="U1IpXBAiC91T13UOEffE-701" value="Scavenger:" style="text;html=1;strokeColor=none;fillColor=none;align=right;verticalAlign=middle;whiteSpace=wrap;rounded=0;labelBackgroundColor=none;movable=1;resizable=1;rotatable=1;deletable=1;editable=1;locked=0;connectable=1;container=0;" vertex="1" parent="1">
          <mxGeometry x="520" y="125" width="105" height="20" as="geometry" />
        </mxCell>
        <mxCell id="U1IpXBAiC91T13UOEffE-707" value="" style="rounded=0;whiteSpace=wrap;html=1;labelBackgroundColor=none;movable=1;resizable=1;rotatable=1;deletable=1;editable=1;locked=0;connectable=1;container=0;" vertex="1" parent="1">
          <mxGeometry x="520" y="150" width="140" height="150" as="geometry" />
        </mxCell>
        <mxCell id="U1IpXBAiC91T13UOEffE-708" value="&lt;p style=&quot;line-height: 120%;&quot;&gt;&lt;b style=&quot;border-color: var(--border-color);&quot;&gt;&lt;font style=&quot;font-size: 14px;&quot;&gt;Siren&#39;s Call&lt;/font&gt;&lt;/b&gt;&lt;/p&gt;" style="whiteSpace=wrap;html=1;labelBackgroundColor=none;movable=1;resizable=1;rotatable=1;deletable=1;editable=1;locked=0;connectable=1;container=0;" vertex="1" parent="1">
          <mxGeometry x="520" y="150" width="140" height="20" as="geometry" />
        </mxCell>
        <mxCell id="U1IpXBAiC91T13UOEffE-710" value="Chests:" style="text;html=1;strokeColor=none;fillColor=none;align=right;verticalAlign=middle;whiteSpace=wrap;rounded=0;labelBackgroundColor=none;movable=1;resizable=1;rotatable=1;deletable=1;editable=1;locked=0;connectable=1;container=0;" vertex="1" parent="1">
          <mxGeometry x="520" y="175" width="105" height="20" as="geometry" />
        </mxCell>
        <mxCell id="U1IpXBAiC91T13UOEffE-711" value="Newt Altars:" style="text;html=1;strokeColor=none;fillColor=none;align=right;verticalAlign=middle;whiteSpace=wrap;rounded=0;labelBackgroundColor=none;movable=1;resizable=1;rotatable=1;deletable=1;editable=1;locked=0;connectable=1;container=0;" vertex="1" parent="1">
          <mxGeometry x="520" y="225" width="105" height="20" as="geometry" />
        </mxCell>
        <mxCell id="U1IpXBAiC91T13UOEffE-712" value="Radio Scanner:" style="text;html=1;strokeColor=none;fillColor=none;align=right;verticalAlign=middle;whiteSpace=wrap;rounded=0;labelBackgroundColor=none;movable=1;resizable=1;rotatable=1;deletable=1;editable=1;locked=0;connectable=1;container=0;" vertex="1" parent="1">
          <mxGeometry x="520" y="250" width="105" height="20" as="geometry" />
        </mxCell>
        <mxCell id="U1IpXBAiC91T13UOEffE-713" value="Shrines:" style="text;html=1;strokeColor=none;fillColor=none;align=right;verticalAlign=middle;whiteSpace=wrap;rounded=0;labelBackgroundColor=none;movable=1;resizable=1;rotatable=1;deletable=1;editable=1;locked=0;connectable=1;container=0;" vertex="1" parent="1">
          <mxGeometry x="520" y="200" width="105" height="20" as="geometry" />
        </mxCell>
        <mxCell id="U1IpXBAiC91T13UOEffE-714" value="Scavenger:" style="text;html=1;strokeColor=none;fillColor=none;align=right;verticalAlign=middle;whiteSpace=wrap;rounded=0;labelBackgroundColor=none;movable=1;resizable=1;rotatable=1;deletable=1;editable=1;locked=0;connectable=1;container=0;" vertex="1" parent="1">
          <mxGeometry x="520" y="275" width="105" height="20" as="geometry" />
        </mxCell>
        <mxCell id="U1IpXBAiC91T13UOEffE-720" value="" style="rounded=0;whiteSpace=wrap;html=1;labelBackgroundColor=none;movable=1;resizable=1;rotatable=1;deletable=1;editable=1;locked=0;connectable=1;container=0;" vertex="1" parent="1">
          <mxGeometry x="520" y="300" width="140" height="150" as="geometry" />
        </mxCell>
        <mxCell id="U1IpXBAiC91T13UOEffE-721" value="&lt;p style=&quot;line-height: 120%;&quot;&gt;&lt;b style=&quot;border-color: var(--border-color);&quot;&gt;&lt;font style=&quot;font-size: 14px;&quot;&gt;Sundered Grove&lt;/font&gt;&lt;/b&gt;&lt;/p&gt;" style="whiteSpace=wrap;html=1;labelBackgroundColor=none;movable=1;resizable=1;rotatable=1;deletable=1;editable=1;locked=0;connectable=1;container=0;" vertex="1" parent="1">
          <mxGeometry x="520" y="300" width="140" height="20" as="geometry" />
        </mxCell>
        <mxCell id="U1IpXBAiC91T13UOEffE-723" value="Chests:" style="text;html=1;strokeColor=none;fillColor=none;align=right;verticalAlign=middle;whiteSpace=wrap;rounded=0;labelBackgroundColor=none;movable=1;resizable=1;rotatable=1;deletable=1;editable=1;locked=0;connectable=1;container=0;" vertex="1" parent="1">
          <mxGeometry x="520" y="325" width="105" height="20" as="geometry" />
        </mxCell>
        <mxCell id="U1IpXBAiC91T13UOEffE-724" value="Newt Altars:" style="text;html=1;strokeColor=none;fillColor=none;align=right;verticalAlign=middle;whiteSpace=wrap;rounded=0;labelBackgroundColor=none;movable=1;resizable=1;rotatable=1;deletable=1;editable=1;locked=0;connectable=1;container=0;" vertex="1" parent="1">
          <mxGeometry x="520" y="375" width="105" height="20" as="geometry" />
        </mxCell>
        <mxCell id="U1IpXBAiC91T13UOEffE-725" value="Radio Scanner:" style="text;html=1;strokeColor=none;fillColor=none;align=right;verticalAlign=middle;whiteSpace=wrap;rounded=0;labelBackgroundColor=none;movable=1;resizable=1;rotatable=1;deletable=1;editable=1;locked=0;connectable=1;container=0;" vertex="1" parent="1">
          <mxGeometry x="520" y="400" width="105" height="20" as="geometry" />
        </mxCell>
        <mxCell id="U1IpXBAiC91T13UOEffE-726" value="Shrines:" style="text;html=1;strokeColor=none;fillColor=none;align=right;verticalAlign=middle;whiteSpace=wrap;rounded=0;labelBackgroundColor=none;movable=1;resizable=1;rotatable=1;deletable=1;editable=1;locked=0;connectable=1;container=0;" vertex="1" parent="1">
          <mxGeometry x="520" y="350" width="105" height="20" as="geometry" />
        </mxCell>
        <mxCell id="U1IpXBAiC91T13UOEffE-727" value="Scavenger:" style="text;html=1;strokeColor=none;fillColor=none;align=right;verticalAlign=middle;whiteSpace=wrap;rounded=0;labelBackgroundColor=none;movable=1;resizable=1;rotatable=1;deletable=1;editable=1;locked=0;connectable=1;container=0;" vertex="1" parent="1">
          <mxGeometry x="520" y="425" width="105" height="20" as="geometry" />
        </mxCell>
        <mxCell id="U1IpXBAiC91T13UOEffE-734" value="" style="rounded=0;whiteSpace=wrap;html=1;labelBackgroundColor=none;movable=1;resizable=1;rotatable=1;deletable=1;editable=1;locked=0;connectable=1;container=0;" vertex="1" parent="1">
          <mxGeometry x="690" width="140" height="150" as="geometry" />
        </mxCell>
        <mxCell id="U1IpXBAiC91T13UOEffE-735" value="&lt;p style=&quot;line-height: 120%;&quot;&gt;&lt;b style=&quot;border-color: var(--border-color);&quot;&gt;&lt;font style=&quot;font-size: 14px;&quot;&gt;Sky Meadow&lt;/font&gt;&lt;/b&gt;&lt;/p&gt;" style="whiteSpace=wrap;html=1;labelBackgroundColor=none;movable=1;resizable=1;rotatable=1;deletable=1;editable=1;locked=0;connectable=1;container=0;" vertex="1" parent="1">
          <mxGeometry x="690" width="140" height="20" as="geometry" />
        </mxCell>
        <mxCell id="U1IpXBAiC91T13UOEffE-737" value="Chests:" style="text;html=1;strokeColor=none;fillColor=none;align=right;verticalAlign=middle;whiteSpace=wrap;rounded=0;labelBackgroundColor=none;movable=1;resizable=1;rotatable=1;deletable=1;editable=1;locked=0;connectable=1;container=0;" vertex="1" parent="1">
          <mxGeometry x="690" y="25" width="105" height="20" as="geometry" />
        </mxCell>
        <mxCell id="U1IpXBAiC91T13UOEffE-738" value="Newt Altars:" style="text;html=1;strokeColor=none;fillColor=none;align=right;verticalAlign=middle;whiteSpace=wrap;rounded=0;labelBackgroundColor=none;movable=1;resizable=1;rotatable=1;deletable=1;editable=1;locked=0;connectable=1;container=0;" vertex="1" parent="1">
          <mxGeometry x="690" y="75" width="105" height="20" as="geometry" />
        </mxCell>
        <mxCell id="U1IpXBAiC91T13UOEffE-739" value="Radio Scanner:" style="text;html=1;strokeColor=none;fillColor=none;align=right;verticalAlign=middle;whiteSpace=wrap;rounded=0;labelBackgroundColor=none;movable=1;resizable=1;rotatable=1;deletable=1;editable=1;locked=0;connectable=1;container=0;" vertex="1" parent="1">
          <mxGeometry x="690" y="100" width="105" height="20" as="geometry" />
        </mxCell>
        <mxCell id="U1IpXBAiC91T13UOEffE-740" value="Shrines:" style="text;html=1;strokeColor=none;fillColor=none;align=right;verticalAlign=middle;whiteSpace=wrap;rounded=0;labelBackgroundColor=none;movable=1;resizable=1;rotatable=1;deletable=1;editable=1;locked=0;connectable=1;container=0;" vertex="1" parent="1">
          <mxGeometry x="690" y="50" width="105" height="20" as="geometry" />
        </mxCell>
        <mxCell id="U1IpXBAiC91T13UOEffE-741" value="Scavenger:" style="text;html=1;strokeColor=none;fillColor=none;align=right;verticalAlign=middle;whiteSpace=wrap;rounded=0;labelBackgroundColor=none;movable=1;resizable=1;rotatable=1;deletable=1;editable=1;locked=0;connectable=1;container=0;" vertex="1" parent="1">
          <mxGeometry x="690" y="125" width="105" height="20" as="geometry" />
        </mxCell>
        <mxCell id="U1IpXBAiC91T13UOEffE-781" value="&lt;b&gt;&lt;font style=&quot;font-size: 14px;&quot;&gt;Bazaar Between Time&lt;/font&gt;&lt;/b&gt;" style="whiteSpace=wrap;html=1;labelBackgroundColor=none;movable=1;resizable=1;rotatable=1;deletable=1;editable=1;locked=0;connectable=1;container=0;" vertex="1" parent="1">
          <mxGeometry x="170" y="480" width="155" height="20" as="geometry" />
        </mxCell>
        <mxCell id="U1IpXBAiC91T13UOEffE-782" value="" style="rounded=0;whiteSpace=wrap;html=1;movable=1;resizable=1;rotatable=1;deletable=1;editable=1;locked=0;connectable=1;container=0;" vertex="1" parent="1">
          <mxGeometry x="170" y="500" width="155" height="30" as="geometry" />
        </mxCell>
        <mxCell id="U1IpXBAiC91T13UOEffE-786" value="&lt;b&gt;&lt;font style=&quot;font-size: 14px;&quot;&gt;Void Fields&lt;/font&gt;&lt;/b&gt;" style="whiteSpace=wrap;html=1;labelBackgroundColor=none;movable=1;resizable=1;rotatable=1;deletable=1;editable=1;locked=0;connectable=1;container=0;" vertex="1" parent="1">
          <mxGeometry x="325" y="480" width="155" height="20" as="geometry" />
        </mxCell>
        <mxCell id="U1IpXBAiC91T13UOEffE-787" value="" style="rounded=0;whiteSpace=wrap;html=1;movable=1;resizable=1;rotatable=1;deletable=1;editable=1;locked=0;connectable=1;container=0;" vertex="1" parent="1">
          <mxGeometry x="325" y="500" width="155" height="30" as="geometry" />
        </mxCell>
        <mxCell id="U1IpXBAiC91T13UOEffE-790" value="&lt;b&gt;&lt;font style=&quot;font-size: 14px;&quot;&gt;Void Locus&lt;br&gt;&lt;/font&gt;&lt;/b&gt;" style="whiteSpace=wrap;html=1;labelBackgroundColor=none;movable=1;resizable=1;rotatable=1;deletable=1;editable=1;locked=0;connectable=1;container=0;" vertex="1" parent="1">
          <mxGeometry x="480" y="480" width="155" height="20" as="geometry" />
        </mxCell>
        <mxCell id="U1IpXBAiC91T13UOEffE-791" value="" style="rounded=0;whiteSpace=wrap;html=1;movable=1;resizable=1;rotatable=1;deletable=1;editable=1;locked=0;connectable=1;container=0;" vertex="1" parent="1">
          <mxGeometry x="480" y="500" width="155" height="30" as="geometry" />
        </mxCell>
        <mxCell id="U1IpXBAiC91T13UOEffE-794" value="&lt;span style=&quot;font-size: 14px;&quot;&gt;&lt;b&gt;The Planetarium&lt;br&gt;&lt;/b&gt;&lt;/span&gt;" style="whiteSpace=wrap;html=1;labelBackgroundColor=none;movable=1;resizable=1;rotatable=1;deletable=1;editable=1;locked=0;connectable=1;container=0;" vertex="1" parent="1">
          <mxGeometry x="635" y="480" width="155" height="20" as="geometry" />
        </mxCell>
        <mxCell id="U1IpXBAiC91T13UOEffE-795" value="" style="rounded=0;whiteSpace=wrap;html=1;movable=1;resizable=1;rotatable=1;deletable=1;editable=1;locked=0;connectable=1;container=0;" vertex="1" parent="1">
          <mxGeometry x="635" y="500" width="155" height="30" as="geometry" />
        </mxCell>
        <mxCell id="U1IpXBAiC91T13UOEffE-798" value="&lt;b&gt;&lt;font style=&quot;font-size: 14px;&quot;&gt;A moment, Fractured&lt;br&gt;&lt;/font&gt;&lt;/b&gt;" style="whiteSpace=wrap;html=1;labelBackgroundColor=none;movable=1;resizable=1;rotatable=1;deletable=1;editable=1;locked=0;connectable=1;container=0;" vertex="1" parent="1">
          <mxGeometry x="170" y="560" width="155" height="20" as="geometry" />
        </mxCell>
        <mxCell id="U1IpXBAiC91T13UOEffE-799" value="" style="rounded=0;whiteSpace=wrap;html=1;movable=1;resizable=1;rotatable=1;deletable=1;editable=1;locked=0;connectable=1;container=0;" vertex="1" parent="1">
          <mxGeometry x="170" y="580" width="155" height="30" as="geometry" />
        </mxCell>
        <mxCell id="U1IpXBAiC91T13UOEffE-802" value="&lt;b&gt;&lt;font style=&quot;font-size: 14px;&quot;&gt;A Moment, Whole&lt;/font&gt;&lt;/b&gt;" style="whiteSpace=wrap;html=1;labelBackgroundColor=none;movable=1;resizable=1;rotatable=1;deletable=1;editable=1;locked=0;connectable=1;container=0;" vertex="1" parent="1">
          <mxGeometry x="325" y="560" width="155" height="20" as="geometry" />
        </mxCell>
        <mxCell id="U1IpXBAiC91T13UOEffE-803" value="" style="rounded=0;whiteSpace=wrap;html=1;movable=1;resizable=1;rotatable=1;deletable=1;editable=1;locked=0;connectable=1;container=0;" vertex="1" parent="1">
          <mxGeometry x="325" y="580" width="155" height="30" as="geometry" />
        </mxCell>
        <mxCell id="U1IpXBAiC91T13UOEffE-806" value="&lt;b&gt;&lt;font style=&quot;font-size: 14px;&quot;&gt;Gilded Coast&lt;/font&gt;&lt;/b&gt;" style="whiteSpace=wrap;html=1;labelBackgroundColor=none;movable=1;resizable=1;rotatable=1;deletable=1;editable=1;locked=0;connectable=1;container=0;" vertex="1" parent="1">
          <mxGeometry x="170" y="640" width="155" height="20" as="geometry" />
        </mxCell>
        <mxCell id="U1IpXBAiC91T13UOEffE-807" value="" style="rounded=0;whiteSpace=wrap;html=1;movable=1;resizable=1;rotatable=1;deletable=1;editable=1;locked=0;connectable=1;container=0;" vertex="1" parent="1">
          <mxGeometry x="170" y="660" width="155" height="30" as="geometry" />
        </mxCell>
        <mxCell id="U1IpXBAiC91T13UOEffE-810" value="&lt;b&gt;&lt;font style=&quot;font-size: 14px;&quot;&gt;Bulwark&#39;s Ambry&lt;br&gt;&lt;/font&gt;&lt;/b&gt;" style="whiteSpace=wrap;html=1;labelBackgroundColor=none;movable=1;resizable=1;rotatable=1;deletable=1;editable=1;locked=0;connectable=1;container=0;" vertex="1" parent="1">
          <mxGeometry x="325" y="640" width="155" height="20" as="geometry" />
        </mxCell>
        <mxCell id="U1IpXBAiC91T13UOEffE-811" value="" style="rounded=0;whiteSpace=wrap;html=1;movable=1;resizable=1;rotatable=1;deletable=1;editable=1;locked=0;connectable=1;container=0;" vertex="1" parent="1">
          <mxGeometry x="325" y="660" width="155" height="30" as="geometry" />
        </mxCell>
        <mxCell id="U1IpXBAiC91T13UOEffE-21" value="" style="rounded=0;whiteSpace=wrap;html=1;labelBackgroundColor=none;movable=1;resizable=1;rotatable=1;deletable=1;editable=1;locked=0;connectable=1;container=0;" vertex="1" parent="1">
          <mxGeometry width="140" height="150" as="geometry" />
        </mxCell>
        <mxCell id="U1IpXBAiC91T13UOEffE-1" value="&lt;p style=&quot;line-height: 120%;&quot;&gt;&lt;b style=&quot;border-color: var(--border-color);&quot;&gt;&lt;font style=&quot;font-size: 14px;&quot;&gt;Distant Roost&lt;/font&gt;&lt;/b&gt;&lt;/p&gt;" style="whiteSpace=wrap;html=1;labelBackgroundColor=none;movable=1;resizable=1;rotatable=1;deletable=1;editable=1;locked=0;connectable=1;container=0;" vertex="1" parent="1">
          <mxGeometry width="140" height="20" as="geometry" />
        </mxCell>
        <mxCell id="U1IpXBAiC91T13UOEffE-7" value="Chests:" style="text;html=1;strokeColor=none;fillColor=none;align=right;verticalAlign=middle;whiteSpace=wrap;rounded=0;labelBackgroundColor=none;movable=1;resizable=1;rotatable=1;deletable=1;editable=1;locked=0;connectable=1;container=0;" vertex="1" parent="1">
          <mxGeometry y="25" width="105" height="20" as="geometry" />
        </mxCell>
        <mxCell id="U1IpXBAiC91T13UOEffE-8" value="Newt Altars:" style="text;html=1;strokeColor=none;fillColor=none;align=right;verticalAlign=middle;whiteSpace=wrap;rounded=0;labelBackgroundColor=none;movable=1;resizable=1;rotatable=1;deletable=1;editable=1;locked=0;connectable=1;container=0;" vertex="1" parent="1">
          <mxGeometry y="75" width="105" height="20" as="geometry" />
        </mxCell>
        <mxCell id="U1IpXBAiC91T13UOEffE-9" value="Radio Scanner:" style="text;html=1;strokeColor=none;fillColor=none;align=right;verticalAlign=middle;whiteSpace=wrap;rounded=0;labelBackgroundColor=none;movable=1;resizable=1;rotatable=1;deletable=1;editable=1;locked=0;connectable=1;container=0;" vertex="1" parent="1">
          <mxGeometry y="100" width="105" height="20" as="geometry" />
        </mxCell>
        <mxCell id="U1IpXBAiC91T13UOEffE-11" value="Shrines:" style="text;html=1;strokeColor=none;fillColor=none;align=right;verticalAlign=middle;whiteSpace=wrap;rounded=0;labelBackgroundColor=none;movable=1;resizable=1;rotatable=1;deletable=1;editable=1;locked=0;connectable=1;container=0;" vertex="1" parent="1">
          <mxGeometry y="50" width="105" height="20" as="geometry" />
        </mxCell>
        <mxCell id="U1IpXBAiC91T13UOEffE-13" value="Scavenger:" style="text;html=1;strokeColor=none;fillColor=none;align=right;verticalAlign=middle;whiteSpace=wrap;rounded=0;labelBackgroundColor=none;movable=1;resizable=1;rotatable=1;deletable=1;editable=1;locked=0;connectable=1;container=0;" vertex="1" parent="1">
          <mxGeometry y="125" width="105" height="20" as="geometry" />
        </mxCell>
        <mxCell id="U1IpXBAiC91T13UOEffE-757" style="edgeStyle=orthogonalEdgeStyle;rounded=0;orthogonalLoop=1;jettySize=auto;html=1;exitX=0.5;exitY=1;exitDx=0;exitDy=0;movable=1;resizable=1;rotatable=1;deletable=1;editable=1;locked=0;connectable=1;" edge="1" parent="1">
          <mxGeometry relative="1" as="geometry">
            <mxPoint x="120" y="120" as="sourcePoint" />
            <mxPoint x="120" y="120" as="targetPoint" />
          </mxGeometry>
        </mxCell>
        <mxCell id="U1IpXBAiC91T13UOEffE-577" value="" style="rounded=0;whiteSpace=wrap;html=1;labelBackgroundColor=none;movable=1;resizable=1;rotatable=1;deletable=1;editable=1;locked=0;connectable=1;container=0;" vertex="1" parent="1">
          <mxGeometry x="170" width="150" height="150" as="geometry" />
        </mxCell>
        <mxCell id="U1IpXBAiC91T13UOEffE-578" value="&lt;p style=&quot;line-height: 120%;&quot;&gt;&lt;b style=&quot;border-color: var(--border-color);&quot;&gt;&lt;font style=&quot;font-size: 14px;&quot;&gt;Abandoned Aqueduct&lt;/font&gt;&lt;/b&gt;&lt;/p&gt;" style="whiteSpace=wrap;html=1;labelBackgroundColor=none;movable=1;resizable=1;rotatable=1;deletable=1;editable=1;locked=0;connectable=1;container=0;" vertex="1" parent="1">
          <mxGeometry x="170" width="150" height="20" as="geometry" />
        </mxCell>
        <mxCell id="U1IpXBAiC91T13UOEffE-580" value="Chests:" style="text;html=1;strokeColor=none;fillColor=none;align=right;verticalAlign=middle;whiteSpace=wrap;rounded=0;labelBackgroundColor=none;movable=1;resizable=1;rotatable=1;deletable=1;editable=1;locked=0;connectable=1;container=0;" vertex="1" parent="1">
          <mxGeometry x="170" y="25" width="115" height="20" as="geometry" />
        </mxCell>
        <mxCell id="U1IpXBAiC91T13UOEffE-581" value="Newt Altars:" style="text;html=1;strokeColor=none;fillColor=none;align=right;verticalAlign=middle;whiteSpace=wrap;rounded=0;labelBackgroundColor=none;movable=1;resizable=1;rotatable=1;deletable=1;editable=1;locked=0;connectable=1;container=0;" vertex="1" parent="1">
          <mxGeometry x="170" y="75" width="115" height="20" as="geometry" />
        </mxCell>
        <mxCell id="U1IpXBAiC91T13UOEffE-582" value="Radio Scanner:" style="text;html=1;strokeColor=none;fillColor=none;align=right;verticalAlign=middle;whiteSpace=wrap;rounded=0;labelBackgroundColor=none;movable=1;resizable=1;rotatable=1;deletable=1;editable=1;locked=0;connectable=1;container=0;" vertex="1" parent="1">
          <mxGeometry x="170" y="100" width="115" height="20" as="geometry" />
        </mxCell>
        <mxCell id="U1IpXBAiC91T13UOEffE-583" value="Shrines:" style="text;html=1;strokeColor=none;fillColor=none;align=right;verticalAlign=middle;whiteSpace=wrap;rounded=0;labelBackgroundColor=none;movable=1;resizable=1;rotatable=1;deletable=1;editable=1;locked=0;connectable=1;container=0;" vertex="1" parent="1">
          <mxGeometry x="170" y="50" width="115" height="20" as="geometry" />
        </mxCell>
        <mxCell id="U1IpXBAiC91T13UOEffE-584" value="Scavenger:" style="text;html=1;strokeColor=none;fillColor=none;align=right;verticalAlign=middle;whiteSpace=wrap;rounded=0;labelBackgroundColor=none;movable=1;resizable=1;rotatable=1;deletable=1;editable=1;locked=0;connectable=1;container=0;" vertex="1" parent="1">
          <mxGeometry x="170" y="125" width="115" height="20" as="geometry" />
        </mxCell>
        <mxCell id="U1IpXBAiC91T13UOEffE-590" value="" style="rounded=0;whiteSpace=wrap;html=1;labelBackgroundColor=none;movable=1;resizable=1;rotatable=1;deletable=1;editable=1;locked=0;connectable=1;container=0;" vertex="1" parent="1">
          <mxGeometry x="170" y="150" width="150" height="150" as="geometry" />
        </mxCell>
        <mxCell id="U1IpXBAiC91T13UOEffE-591" value="&lt;p style=&quot;line-height: 120%;&quot;&gt;&lt;b style=&quot;border-color: var(--border-color);&quot;&gt;&lt;font style=&quot;font-size: 14px;&quot;&gt;Wetland Aspect&lt;/font&gt;&lt;/b&gt;&lt;/p&gt;" style="whiteSpace=wrap;html=1;labelBackgroundColor=none;movable=1;resizable=1;rotatable=1;deletable=1;editable=1;locked=0;connectable=1;container=0;" vertex="1" parent="1">
          <mxGeometry x="170" y="150" width="150" height="20" as="geometry" />
        </mxCell>
        <mxCell id="U1IpXBAiC91T13UOEffE-593" value="Chests:" style="text;html=1;strokeColor=none;fillColor=none;align=right;verticalAlign=middle;whiteSpace=wrap;rounded=0;labelBackgroundColor=none;movable=1;resizable=1;rotatable=1;deletable=1;editable=1;locked=0;connectable=1;container=0;" vertex="1" parent="1">
          <mxGeometry x="170" y="175" width="115" height="20" as="geometry" />
        </mxCell>
        <mxCell id="U1IpXBAiC91T13UOEffE-594" value="Newt Altars:" style="text;html=1;strokeColor=none;fillColor=none;align=right;verticalAlign=middle;whiteSpace=wrap;rounded=0;labelBackgroundColor=none;movable=1;resizable=1;rotatable=1;deletable=1;editable=1;locked=0;connectable=1;container=0;" vertex="1" parent="1">
          <mxGeometry x="170" y="225" width="115" height="20" as="geometry" />
        </mxCell>
        <mxCell id="U1IpXBAiC91T13UOEffE-595" value="Radio Scanner:" style="text;html=1;strokeColor=none;fillColor=none;align=right;verticalAlign=middle;whiteSpace=wrap;rounded=0;labelBackgroundColor=none;movable=1;resizable=1;rotatable=1;deletable=1;editable=1;locked=0;connectable=1;container=0;" vertex="1" parent="1">
          <mxGeometry x="170" y="250" width="115" height="20" as="geometry" />
        </mxCell>
        <mxCell id="U1IpXBAiC91T13UOEffE-596" value="Shrines:" style="text;html=1;strokeColor=none;fillColor=none;align=right;verticalAlign=middle;whiteSpace=wrap;rounded=0;labelBackgroundColor=none;movable=1;resizable=1;rotatable=1;deletable=1;editable=1;locked=0;connectable=1;container=0;" vertex="1" parent="1">
          <mxGeometry x="170" y="200" width="115" height="20" as="geometry" />
        </mxCell>
        <mxCell id="U1IpXBAiC91T13UOEffE-597" value="Scavenger:" style="text;html=1;strokeColor=none;fillColor=none;align=right;verticalAlign=middle;whiteSpace=wrap;rounded=0;labelBackgroundColor=none;movable=1;resizable=1;rotatable=1;deletable=1;editable=1;locked=0;connectable=1;container=0;" vertex="1" parent="1">
          <mxGeometry x="170" y="275" width="115" height="20" as="geometry" />
        </mxCell>
        <mxCell id="U1IpXBAiC91T13UOEffE-603" value="" style="rounded=0;whiteSpace=wrap;html=1;labelBackgroundColor=none;movable=1;resizable=1;rotatable=1;deletable=1;editable=1;locked=0;connectable=1;container=0;" vertex="1" parent="1">
          <mxGeometry x="170" y="300" width="150" height="150" as="geometry" />
        </mxCell>
        <mxCell id="U1IpXBAiC91T13UOEffE-604" value="&lt;p style=&quot;line-height: 120%;&quot;&gt;&lt;b style=&quot;border-color: var(--border-color);&quot;&gt;&lt;font style=&quot;font-size: 14px;&quot;&gt;Aphelian Sanctuary&lt;/font&gt;&lt;/b&gt;&lt;/p&gt;" style="whiteSpace=wrap;html=1;labelBackgroundColor=none;movable=1;resizable=1;rotatable=1;deletable=1;editable=1;locked=0;connectable=1;container=0;" vertex="1" parent="1">
          <mxGeometry x="170" y="300" width="150" height="20" as="geometry" />
        </mxCell>
        <mxCell id="U1IpXBAiC91T13UOEffE-606" value="Chests:" style="text;html=1;strokeColor=none;fillColor=none;align=right;verticalAlign=middle;whiteSpace=wrap;rounded=0;labelBackgroundColor=none;movable=1;resizable=1;rotatable=1;deletable=1;editable=1;locked=0;connectable=1;container=0;" vertex="1" parent="1">
          <mxGeometry x="170" y="325" width="115" height="20" as="geometry" />
        </mxCell>
        <mxCell id="U1IpXBAiC91T13UOEffE-607" value="Newt Altars:" style="text;html=1;strokeColor=none;fillColor=none;align=right;verticalAlign=middle;whiteSpace=wrap;rounded=0;labelBackgroundColor=none;movable=1;resizable=1;rotatable=1;deletable=1;editable=1;locked=0;connectable=1;container=0;" vertex="1" parent="1">
          <mxGeometry x="170" y="375" width="115" height="20" as="geometry" />
        </mxCell>
        <mxCell id="U1IpXBAiC91T13UOEffE-608" value="Radio Scanner:" style="text;html=1;strokeColor=none;fillColor=none;align=right;verticalAlign=middle;whiteSpace=wrap;rounded=0;labelBackgroundColor=none;movable=1;resizable=1;rotatable=1;deletable=1;editable=1;locked=0;connectable=1;container=0;" vertex="1" parent="1">
          <mxGeometry x="170" y="400" width="115" height="20" as="geometry" />
        </mxCell>
        <mxCell id="U1IpXBAiC91T13UOEffE-609" value="Shrines:" style="text;html=1;strokeColor=none;fillColor=none;align=right;verticalAlign=middle;whiteSpace=wrap;rounded=0;labelBackgroundColor=none;movable=1;resizable=1;rotatable=1;deletable=1;editable=1;locked=0;connectable=1;container=0;" vertex="1" parent="1">
          <mxGeometry x="170" y="350" width="115" height="20" as="geometry" />
        </mxCell>
        <mxCell id="U1IpXBAiC91T13UOEffE-610" value="Scavenger:" style="text;html=1;strokeColor=none;fillColor=none;align=right;verticalAlign=middle;whiteSpace=wrap;rounded=0;labelBackgroundColor=none;movable=1;resizable=1;rotatable=1;deletable=1;editable=1;locked=0;connectable=1;container=0;" vertex="1" parent="1">
          <mxGeometry x="170" y="425" width="115" height="20" as="geometry" />
        </mxCell>
      </root>
    </mxGraphModel>
  </diagram>
</mxfile>
